# Blender 4.0.2
# www.blender.org
mtllib untitled.mtl
o or
v 0.000000 0.000000 0.000000
v 0.000000 10.000000 -0.000001
v 10.000000 0.000000 0.000000
v 10.000000 10.000000 -0.000001
v 0.000000 0.000001 10.000000
v 0.000000 10.000001 9.999999
v 10.000000 0.000001 10.000000
v 10.000000 10.000001 9.999999
v 0.000000 20.000000 -0.000002
v 10.000000 20.000000 -0.000002
v 0.000000 20.000000 9.999998
v 0.000000 10.000002 20.000000
v 0.000000 20.000002 19.999998
v 10.000000 10.000002 20.000000
v 10.000000 20.000002 19.999998
v 0.000000 30.000000 -0.000002
v 10.000000 30.000000 -0.000002
v 0.000000 30.000000 9.999998
v 0.000000 30.000002 19.999998
v 0.000000 20.000002 29.999998
v 0.000000 30.000002 29.999998
v 10.000000 20.000002 29.999998
v 10.000000 30.000002 29.999998
v 0.000000 40.000000 -0.000003
v 10.000000 40.000000 -0.000003
v 0.000000 40.000000 9.999997
v 10.000000 40.000000 9.999997
v 0.000000 40.000000 19.999996
v 10.000000 40.000000 19.999996
v 0.000000 40.000004 29.999996
v 10.000000 40.000004 29.999996
v 0.000000 30.000004 39.999996
v 0.000000 40.000004 39.999996
v 10.000000 30.000004 39.999996
v 10.000000 40.000004 39.999996
v 20.000000 0.000000 0.000000
v 20.000000 10.000000 -0.000001
v 20.000000 0.000001 10.000000
v 10.000000 0.000002 20.000000
v 20.000000 0.000002 20.000000
v 20.000000 10.000002 20.000000
v 20.000000 20.000000 -0.000002
v 20.000000 20.000002 19.999998
v 20.000000 30.000000 -0.000002
v 20.000000 20.000002 29.999998
v 20.000000 30.000002 29.999998
v 10.000000 20.000004 40.000000
v 20.000000 20.000004 40.000000
v 20.000000 30.000004 39.999996
v 20.000000 40.000000 -0.000003
v 20.000000 40.000000 9.999997
v 20.000000 40.000000 19.999996
v 20.000000 40.000004 29.999996
v 20.000000 40.000004 39.999996
v 30.000000 0.000000 0.000000
v 30.000000 10.000000 -0.000001
v 30.000000 0.000001 10.000000
v 30.000000 0.000002 20.000000
v 20.000000 0.000002 30.000000
v 20.000000 10.000002 30.000000
v 30.000000 0.000002 30.000000
v 30.000000 10.000002 30.000000
v 30.000000 20.000000 -0.000002
v 30.000000 20.000002 29.999998
v 20.000000 10.000003 40.000000
v 30.000000 10.000003 40.000000
v 30.000000 20.000004 40.000000
v 30.000000 30.000000 -0.000002
v 30.000000 30.000002 29.999998
v 30.000000 40.000000 -0.000003
v 30.000000 40.000000 9.999997
v 30.000000 40.000000 19.999996
v 30.000000 40.000004 29.999996
v 30.000000 30.000004 39.999996
v 30.000000 40.000004 39.999996
v 40.000000 0.000000 0.000000
v 40.000000 10.000000 -0.000001
v 40.000000 0.000001 10.000000
v 40.000000 10.000001 9.999999
v 40.000000 0.000002 20.000000
v 40.000000 10.000002 20.000000
v 40.000000 0.000002 30.000000
v 40.000000 10.000002 30.000000
v 30.000000 0.000003 40.000000
v 40.000000 0.000003 40.000000
v 40.000000 10.000003 40.000000
v 40.000000 20.000000 -0.000002
v 40.000000 20.000000 9.999998
v 40.000000 20.000002 19.999998
v 40.000000 20.000002 29.999998
v 40.000000 20.000004 40.000000
v 40.000000 30.000000 -0.000002
v 40.000000 30.000000 9.999998
v 40.000000 30.000002 19.999998
v 40.000000 30.000002 29.999998
v 40.000000 30.000004 39.999996
v 40.000000 40.000000 -0.000003
v 40.000000 40.000000 9.999997
v 40.000000 40.000000 19.999996
v 40.000000 40.000004 29.999996
v 40.000000 40.000004 39.999996
vn -0.0000 -1.0000 -0.0000
vn -0.0000 -0.0000 1.0000
vn -0.0000 -0.0000 -1.0000
vn -1.0000 -0.0000 -0.0000
vn -0.0000 1.0000 -0.0000
vn 1.0000 -0.0000 -0.0000
s 0
f 5//1 1//1 3//1 7//1
f 6//2 5//2 7//2 8//2
f 2//3 4//3 3//3 1//3
f 2//4 1//4 5//4 6//4
f 4//3 2//3 9//3 10//3
f 9//4 2//4 6//4 11//4
f 12//1 6//1 8//1 14//1
f 13//2 12//2 14//2 15//2
f 11//4 6//4 12//4 13//4
f 10//3 9//3 16//3 17//3
f 16//4 9//4 11//4 18//4
f 18//4 11//4 13//4 19//4
f 20//1 13//1 15//1 22//1
f 21//2 20//2 22//2 23//2
f 19//4 13//4 20//4 21//4
f 26//5 27//5 25//5 24//5
f 17//3 16//3 24//3 25//3
f 24//4 16//4 18//4 26//4
f 27//5 26//5 28//5 29//5
f 26//4 18//4 19//4 28//4
f 29//5 28//5 30//5 31//5
f 28//4 19//4 21//4 30//4
f 32//1 21//1 23//1 34//1
f 33//2 32//2 34//2 35//2
f 31//5 30//5 33//5 35//5
f 30//4 21//4 32//4 33//4
f 7//1 3//1 36//1 38//1
f 36//3 3//3 4//3 37//3
f 40//1 39//1 7//1 38//1
f 14//2 39//2 40//2 41//2
f 7//4 39//4 14//4 8//4
f 10//3 42//3 37//3 4//3
f 43//2 15//2 14//2 41//2
f 17//3 44//3 42//3 10//3
f 22//1 15//1 43//1 45//1
f 47//1 22//1 45//1 48//1
f 48//6 45//6 46//6 49//6
f 34//2 47//2 48//2 49//2
f 23//4 22//4 47//4 34//4
f 50//5 25//5 27//5 51//5
f 25//3 50//3 44//3 17//3
f 29//5 52//5 51//5 27//5
f 31//5 53//5 52//5 29//5
f 54//2 35//2 34//2 49//2
f 35//5 54//5 53//5 31//5
f 38//1 36//1 55//1 57//1
f 37//3 56//3 55//3 36//3
f 40//1 38//1 57//1 58//1
f 59//1 40//1 58//1 61//1
f 60//2 59//2 61//2 62//2
f 41//4 40//4 59//4 60//4
f 56//3 37//3 42//3 63//3
f 41//4 60//4 45//4 43//4
f 66//1 65//1 60//1 62//1
f 48//2 65//2 66//2 67//2
f 48//5 67//5 64//5 45//5
f 65//4 48//4 45//4 60//4
f 44//3 68//3 63//3 42//3
f 46//2 45//2 64//2 69//2
f 51//5 71//5 70//5 50//5
f 50//3 70//3 68//3 44//3
f 71//5 51//5 52//5 72//5
f 53//5 73//5 72//5 52//5
f 49//1 46//1 69//1 74//1
f 54//2 49//2 74//2 75//2
f 54//5 75//5 73//5 53//5
f 57//1 55//1 76//1 78//1
f 78//6 76//6 77//6 79//6
f 56//3 77//3 76//3 55//3
f 58//1 57//1 78//1 80//1
f 80//6 78//6 79//6 81//6
f 61//1 58//1 80//1 82//1
f 82//6 80//6 81//6 83//6
f 84//1 61//1 82//1 85//1
f 85//6 82//6 83//6 86//6
f 66//2 84//2 85//2 86//2
f 62//4 61//4 84//4 66//4
f 87//6 88//6 79//6 77//6
f 63//3 87//3 77//3 56//3
f 81//6 79//6 88//6 89//6
f 89//6 90//6 83//6 81//6
f 90//6 91//6 86//6 83//6
f 67//2 66//2 86//2 91//2
f 92//6 93//6 88//6 87//6
f 87//3 63//3 68//3 92//3
f 93//6 94//6 89//6 88//6
f 90//6 89//6 94//6 95//6
f 95//6 96//6 91//6 90//6
f 74//2 67//2 91//2 96//2
f 69//4 64//4 67//4 74//4
f 97//6 98//6 93//6 92//6
f 71//5 98//5 97//5 70//5
f 70//3 97//3 92//3 68//3
f 98//6 99//6 94//6 93//6
f 72//5 99//5 98//5 71//5
f 99//6 100//6 95//6 94//6
f 99//5 72//5 73//5 100//5
f 100//6 101//6 96//6 95//6
f 75//2 74//2 96//2 101//2
f 75//5 101//5 100//5 73//5
